<svg xmlns="http://www.w3.org/2000/svg" width="40" height="40" fill="none">
  <ellipse cx="4.4" cy="2.6" stroke="#00deff" rx="4.4" ry="2.6" transform="rotate(171.7 11.7 11.9)"/>
  <path stroke="#00deff" d="M20.7 22.6c2.7-.4 4.3-2 4-4-.4-2.5-2.8-4.2-6.4-3.6-3.2.4-7.5 2.8-6.7 8.2.4 3.1 4.3 6.6 10 5.8 7-1 13-6 12-13.2-.7-4.9-6-11.2-15.4-9.8"/>
  <path stroke="#00deff" d="M19.9 17.4c-2.7.4-4.3 2-4 4 .3 2.5 2.8 4.2 6.4 3.6 3.2-.4 7.5-2.8 6.7-8.2-.5-3.1-4.3-6.6-10-5.8-7 1-13.1 6-12 13.2.6 4.9 5.9 11.2 15.4 9.8"/>
</svg>
