<svg xmlns="http://www.w3.org/2000/svg" width="26.9" height="30.2" fill="none" viewBox="0 0 26.9 30.2">
  <path stroke="#00deff" stroke-width=".9" d="M13.4 29.8q.9 0 1.9-1a10 10 0 0 0 1.7-3.2 31 31 0 0 0 1.6-10.5A31 31 0 0 0 17 4.6a10 10 0 0 0-1.7-3q-1-1.2-2-1.2-.8 0-1.8 1a10 10 0 0 0-1.7 3.1 31 31 0 0 0-1.7 10.6c0 4 .7 7.8 1.7 10.5a10 10 0 0 0 1.7 3q1 1.2 1.9 1.1z"/>
  <path stroke="#00deff" stroke-width=".9" d="M26.1 22.5q.4-.9 0-2.3-.4-1.2-1.8-3a31 31 0 0 0-8.3-6.6 31 31 0 0 0-10-4 10 10 0 0 0-3.5 0Q1.1 7 .7 7.9t0 2.2 1.7 3a31 31 0 0 0 8.4 6.7 31 31 0 0 0 10 3.8q2 .3 3.5 0 1.4-.3 1.8-1z"/>
  <path stroke="#00deff" stroke-width=".9" d="M26.1 7.8q-.4-.8-1.8-1.1a10 10 0 0 0-3.6 0 31 31 0 0 0-10 3.9 31 31 0 0 0-8.2 6.7 10 10 0 0 0-1.8 3q-.5 1.4 0 2.1t1.8 1.2q1.5.2 3.6 0a31 31 0 0 0 10-4 31 31 0 0 0 8.3-6.6 10 10 0 0 0 1.8-3q.4-1.5 0-2.2z"/>
  <circle cx="13.3" cy="-15.2" r="2.1" fill="#00deff" stroke="#00deff" stroke-width=".9" transform="scale(1 -1)"/>
</svg>